<svg width="23" height="24" viewBox="0 0 23 24" fill="none" xmlns="http://www.w3.org/2000/svg">
<circle cx="11" cy="5" r="4.5" stroke="#4C4C4C"/>
<mask id="path-2-inside-1_122_2" fill="white">
<path d="M21 23.5C22.1046 23.5 23.0177 22.5979 22.8266 21.51C22.4205 19.1989 21.3134 17.05 19.6317 15.3683C17.4751 13.2116 14.55 12 11.5 12C8.45001 12 5.52494 13.2116 3.36827 15.3683C1.68655 17.05 0.579483 19.1989 0.173437 21.51C-0.0177043 22.5979 0.895431 23.5 2 23.5L11.5 23.5H21Z"/>
</mask>
<path d="M21 23.5C22.1046 23.5 23.0177 22.5979 22.8266 21.51C22.4205 19.1989 21.3134 17.05 19.6317 15.3683C17.4751 13.2116 14.55 12 11.5 12C8.45001 12 5.52494 13.2116 3.36827 15.3683C1.68655 17.05 0.579483 19.1989 0.173437 21.51C-0.0177043 22.5979 0.895431 23.5 2 23.5L11.5 23.5H21Z" stroke="#4C4C4C" stroke-width="2" mask="url(#path-2-inside-1_122_2)"/>
</svg>
